<mxfile host="app.diagrams.net" modified="2023-06-06T12:06:22.927Z" agent="Mozilla/5.0 (Windows NT 10.0; Win64; x64) AppleWebKit/537.36 (KHTML, like Gecko) Chrome/114.0.0.0 Safari/537.36" version="21.3.2" etag="6ag4E2t-ofOhPhKr7c2w" type="github">
  <diagram name="第 1 页" id="5Wwx3KIfEBWpFouZfE7V">
    <mxGraphModel>
      <root>
        <mxCell id="0" />
        <mxCell id="1" parent="0" />
      </root>
    </mxGraphModel>
  </diagram>
</mxfile>
